<svg xmlns="http://www.w3.org/2000/svg" xmlns:xlink="http://www.w3.org/1999/xlink" xmlns:lucid="lucid" width="835" height="766"><g transform="translate(-67 -552)" lucid:page-tab-id="Ku8TCxt1rGs_"><path d="M82.9 573.87a6 6 0 0 1 6-6h790.53a6 6 0 0 1 6 6v725a6 6 0 0 1-6 6H88.9a6 6 0 0 1-6-6z" stroke="#232f3e" fill="#fff" fill-opacity="0"/><path d="M82.9 567.87h56v56h-56v-56z" stroke="#fff" stroke-opacity="0" fill="#232f3e"/><path d="M123.77 609.08h-25c-4.13.05-7.57-3.1-7.9-7.2v-.63c-.15-3.4 1.97-6.4 5.25-7.36v-.67c.12-4.22 2.44-7.76 6.24-9.58 4.12-1.84 8.72-.95 11.8 2.32 1.1 1.1 1.85 2.2 2.45 3.6 1.2-1 2.73-1.33 4.25-.9 2.24.8 3.68 2.74 3.76 5.1 3.7.64 6.33 3.78 6.3 7.56 0 7.07-7.05 7.72-7.13 7.75zm-26.7-13.87c-2.83.6-4.75 3.15-4.6 6.05v.52c.3 3.33 3.1 5.83 6.4 5.75h24.98c3.04-.28 5.4-2.63 5.68-5.7.28-3.42-2.24-6.48-5.68-6.77-.44-.05-.72-.45-.64-.87.1-1.85-1-3.46-2.7-4.14-1.33-.37-2.65.13-3.45 1.24-.2.23-.44.37-.76.3-.3-.04-.5-.22-.6-.5-.6-1.6-1.4-2.84-2.62-4.02-2.67-2.8-6.6-3.6-10.12-2-3.24 1.6-5.2 4.63-5.32 8.25-.04.4-.04.75 0 1.14.04.4-.2.77-.6.85z" stroke="#fff" stroke-opacity="0" fill="#fff"/><use xlink:href="#a" transform="matrix(1,0,0,1,153.88906677170917,587.864662349659) translate(0 14.4)"/><use xlink:href="#b" transform="matrix(1,0,0,1,153.88906677170917,587.864662349659) translate(45.3 14.4)"/><path d="M142.9 653.87a6 6 0 0 1 6-6h668a6 6 0 0 1 6 6v624.84a6 6 0 0 1-6 6h-668a6 6 0 0 1-6-6z" fill="#fff" fill-opacity="0"/><path d="M143.8 650.74l.23-.4.62-.72.7-.6.4-.25m1.74-.72l.45-.1.94-.1h1.48m2 0h3m1.98 0h3m2 0h2.98m2 0h2.98m2 0h3m1.98 0h3m2 0h2.98m2 0h2.98m2 0h3m1.98 0h3m2 0h2.98m2 0h3m1.98 0h3m2 0h2.98m2 0h2.98m2 0h3m1.98 0h3m2 0h2.98m2 0h2.98m2 0h3m1.98 0h3m1.98 0h3m2 0h2.98m2 0h3m1.98 0h3m2 0H280m2 0h2.98m2 0h3m1.98 0h3m2 0h2.98m2 0h2.98m2 0h3m1.98 0h3m2 0h2.98m2 0h2.98m2 0h3m1.98 0h3m2 0h2.98m2 0h2.98m2 0h3m1.98 0h3m2 0h2.98m2 0h2.98m2 0h3m1.98 0h3m2 0h2.98m2 0h2.98m2 0h3m1.98 0h3m2 0h2.98m2 0h2.98m2 0h3m1.98 0h3m2 0h2.98m2 0h2.98m2 0h3m1.98 0h3m2 0h2.98m2 0h2.98m2 0h3m1.98 0h3m2 0h2.98m2 0h2.98m2 0h3m1.98 0h3m2 0h2.98m2 0h3m1.98 0h3m1.98 0h3m2 0h2.98m2 0h3m1.98 0h3m1.98 0h3m2 0h2.98m2 0h3m1.98 0h3m1.98 0h3m2 0h2.98m2 0h3m1.98 0h3m1.98 0h3m2 0h2.98m2 0h3m1.98 0h3m2 0h2.98m2 0h2.98m2 0h3m1.98 0h3m2 0h2.98m2 0h2.98m2 0h3m1.98 0h3m2 0H614m2 0h2.98m2 0h3m1.98 0h3m2 0h2.98m2 0h2.98m2 0h3m1.98 0h3m2 0h2.98m2 0h2.98m2 0h3m1.98 0h3m2 0h2.98m2 0h2.98m2 0h3m1.98 0h3m2 0h2.98m2 0h2.98m2 0h3m1.98 0h3m2 0h2.98m2 0h2.98m2 0h3m1.98 0h3m2 0h2.98m2 0h2.98m2 0h3m1.98 0h3m2 0h2.98m2 0h2.98m2 0h3m1.98 0h3m2 0h2.98m2 0h2.98m2 0h3m1.98 0h3m2 0h2.98m2 0h2.98m2 0h3m1.98 0h3m2 0h2.98m2 0h1.5l.93.1.45.1m1.73.72l.42.24.7.62.62.72.25.4m.7 1.73l.12.46.07.94v1.5m0 2v3m0 2v3m0 2v3m0 2v3m0 2v3m0 2v3m0 2v3m0 2v3m0 1.98v3m0 2v3m0 2v3m0 2v3m0 2v3m0 2v3m0 2v3m0 2v3m0 2v3m0 2v3m0 2v3m0 2v3m0 2v3m0 2v3m0 2v3m0 2v3m0 2v2.98m0 2v3m0 2v3m0 2v3m0 2v3m0 2v3m0 2v3m0 2v3m0 2v3m0 2v3m0 2v3m0 2v3m0 2v3m0 2v3m0 2v3m0 2v3m0 2v3m0 2v2.98m0 2v3m0 2v3m0 2v3m0 2v3m0 2v3m0 2v3m0 2v3m0 2v3m0 2v3m0 2v3m0 2v3m0 2v3m0 2v3m0 2v3m0 2v3m0 2v3m0 2v3m0 2v3m0 2v3m0 2v3m0 2v3m0 2v3m0 2v3m0 2v3m0 2v2.98m0 2v3m0 2v3m0 2v3m0 2v3m0 2v3m0 2v3m0 2v3m0 2v3m0 2v3m0 2v3m0 2v3m0 2v3m0 2v3m0 2v3m0 2v3m0 2v3m0 2v2.98m0 2v3m0 2v3m0 2v3m0 2v3m0 2v3m0 2v3m0 2v3m0 2v3m0 2v3m0 2v3m0 2v3m0 2v3m0 2v3m0 2v3m0 2v3m0 2v2.98m0 2v3m0 2v3m0 2v3m0 2v3m0 2v3m0 2v3m0 2v3m0 2v3m0 2v3m0 2v3m0 2v3m0 2v3m0 2v3m0 2v3m0 2v3m0 2v3m0 1.98v3m0 2v3m0 2v3m0 2v3m0 2v3m0 2v3m0 2v3m0 2v3m0 2v1.5l-.08.93-.12.46m-.7 1.74l-.26.4-.6.72-.72.6-.4.26m-1.74.7l-.45.12-.94.07h-1.5m-2 0h-3m-2 0h-2.98m-2 0h-2.98m-2 0h-3m-1.98 0h-3m-2 0h-2.98m-2 0h-2.98m-2 0h-3m-1.98 0h-3m-2 0h-2.98m-2 0h-2.98m-2 0h-3m-1.98 0h-3m-2 0h-2.98m-2 0h-2.98m-2 0h-3m-1.98 0h-3m-2 0h-2.98m-2 0h-2.98m-2 0h-3m-1.98 0h-3m-2 0h-2.98m-2 0h-2.98m-2 0h-3m-1.98 0h-3m-2 0h-2.98m-2 0h-2.98m-2 0h-3m-1.98 0h-3m-2 0h-2.98m-2 0h-2.98m-2 0h-3m-1.98 0h-3m-2 0h-2.98m-2 0h-2.98m-2 0h-3m-1.98 0h-3m-2 0h-2.98m-2 0H621m-2 0h-3m-1.98 0h-3m-2 0h-2.98m-2 0h-3m-1.98 0h-3m-1.98 0h-3m-2 0h-2.98m-2 0h-3m-1.98 0h-3m-1.98 0h-3m-2 0h-2.98m-2 0h-3m-1.98 0h-3m-1.98 0h-3m-2 0h-2.98m-2 0h-3m-1.98 0h-3m-2 0h-2.98m-2 0h-2.98m-2 0h-3m-1.98 0h-3m-2 0h-2.98m-2 0h-2.98m-2 0h-3m-1.98 0h-3m-1.98 0h-3m-2 0h-2.98m-2 0h-3m-1.98 0h-3m-2 0h-2.98m-2 0h-2.98m-2 0h-3m-1.98 0h-3m-2 0h-2.98m-2 0h-2.98m-2 0h-3m-1.98 0h-3m-2 0h-2.98m-2 0h-2.98m-2 0h-3m-1.98 0h-3m-2 0h-2.98m-2 0h-2.98m-2 0h-3m-1.98 0h-3m-2 0h-2.98m-2 0h-2.98m-2 0h-3m-1.98 0h-3m-2 0h-2.98m-2 0h-2.98m-2 0h-3m-1.98 0h-3m-2 0h-2.98m-2 0h-2.98m-2 0h-3m-1.98 0h-3m-2 0h-2.98m-2 0h-2.98m-2 0h-3m-1.98 0h-3m-2 0h-2.98m-2 0h-2.98m-2 0h-3m-1.98 0h-3m-2 0h-2.98m-2 0H287m-2 0h-3m-1.98 0h-3m-2 0h-2.98m-2 0h-2.98m-2 0h-3m-1.98 0h-3m-2 0h-2.98m-2 0h-3m-1.98 0h-3m-1.98 0h-3m-2 0h-2.98m-2 0h-2.98m-2 0h-3m-1.98 0h-3m-2 0h-2.98m-2 0h-3m-1.98 0h-3m-1.98 0h-3m-2 0h-2.98m-2 0h-3m-1.98 0h-3m-2 0h-2.98m-2 0h-2.98m-2 0h-3m-1.98 0h-3m-2 0h-2.98m-2 0h-2.98m-2 0h-1.5l-.93-.06-.46-.1m-1.74-.72l-.4-.25-.7-.6-.63-.73-.24-.4m-.73-1.73l-.1-.45-.08-.94v-1.48m0-2v-3m0-2v-3m0-2v-3m0-2v-3m0-2v-3m0-2v-3m0-2v-3m0-2v-3m0-2v-3m0-2v-3m0-2v-3m0-2v-3m0-2v-3m0-2v-3m0-2v-3m0-2v-3m0-2v-2.98m0-2v-3m0-2v-3m0-2v-3m0-2v-3m0-2v-3m0-2v-3m0-2v-3m0-2v-3m0-2v-3m0-2v-3m0-2v-3m0-2v-3m0-2v-3m0-2v-3m0-2v-3m0-1.98v-3m0-2v-3m0-2v-3m0-2v-3m0-2v-3m0-2v-3m0-2v-3m0-2v-3m0-2v-3m0-2v-3m0-2v-3m0-2v-3m0-2v-3m0-2v-3m0-2v-3m0-2v-3m0-2v-3m0-1.98v-3m0-2v-3m0-2v-3m0-2v-3m0-2v-3m0-2v-3m0-2v-3m0-2v-3m0-2v-3m0-2v-3m0-2v-3m0-2v-3m0-2v-3m0-2v-3m0-2v-3m0-2v-3m0-2v-3m0-2v-2.98m0-2v-3m0-2v-3m0-2v-3m0-2v-3m0-2v-3m0-2v-3m0-2v-3m0-2v-3m0-2v-3m0-2v-3m0-2v-3m0-2v-3m0-2v-3m0-2v-3m0-2v-3m0-2v-2.98m0-2v-3m0-2v-3m0-2v-3m0-2v-3m0-2v-3m0-2v-3m0-2v-3m0-2v-3m0-2v-3m0-2v-3m0-2v-3m0-2v-3m0-2v-3m0-2v-3m0-2v-3m0-2v-3m0-2v-3m0-1.98v-3m0-2v-3m0-2v-3m0-2v-3m0-2v-3m0-2v-3m0-2v-3m0-2v-3m0-2v-3m0-2v-3m0-2v-3m0-2v-3m0-2v-3m0-2v-3m0-2v-3m0-2v-3m0-2v-3m0-1.98v-3m0-2v-3m0-2v-3m0-2v-3m0-2v-3m0-2v-3m0-2v-3m0-2v-1.5l.06-.93.1-.46" stroke="#147eba" fill="none"/><path d="M142.9 647.87h56v56h-56v-56z" stroke="#fff" stroke-opacity="0" fill="#147eba"/><path d="M186.73 677.23l-5.96-7.37 5.96-7.4h-26.17v-2.08c.98-.32 1.62-1.15 1.62-2.2-.1-1.14-1.02-2.02-2.16-2.14-1.3-.08-2.44.88-2.53 2.15 0 1.03.62 1.86 1.57 2.18v33.9h-4.02v1.6h9.44v-1.6h-3.94v-17.05zm-26.96-19.75c.4-.04.76.3.76.7 0 .45-.32.77-.73.77-.4.04-.76-.32-.76-.72v-.04c0-.4.32-.72.73-.72zm23.6 6.6l-4.66 5.78 4.67 5.74h-22.8v-11.5z" stroke="#fff" stroke-opacity="0" fill="#fff"/><use xlink:href="#c" transform="matrix(1,0,0,1,213.88906677170917,667.8646623496589) translate(0 14.4)"/><path d="M222.9 733.87a6 6 0 0 1 6-6h508a6 6 0 0 1 6 6v522.08a6 6 0 0 1-6 6h-508a6 6 0 0 1-6-6z" stroke="#248814" fill="#fff" fill-opacity="0"/><path d="M222.9 727.87h56v56h-56v-56z" stroke="#fff" stroke-opacity="0" fill="#248814"/><path d="M254.65 756.17h-1.18v-1.1c-.12-1.73-1.48-3.08-3.2-3.2-1.9-.13-3.54 1.3-3.67 3.2v1.06h-1.18c-.44 0-.8.36-.8.8v6.13c0 .44.35.8.8.8h9.23c.44 0 .8-.36.8-.8v-6.1c0-.43-.36-.8-.8-.8zm-6.4-1.07c.1-1.02 1-1.76 2-1.67.9.1 1.58.77 1.67 1.67v1.07h-3.72zm5.65 7.08h-7.68v-4.4h7.63z" stroke="#fff" stroke-opacity="0" fill="#fff"/><path d="M265.16 753.6c-.1-2.43-1.58-4.47-3.87-5.3-1.6-.46-3.18-.13-4.42.92-.67-1.46-1.46-2.6-2.58-3.76-3.25-3.36-7.95-4.3-12.2-2.4-4.03 1.9-6.4 5.64-6.53 10.06v.7c-3.4.97-5.66 4.07-5.5 7.64v.63c.38 4.28 3.92 7.52 8.2 7.46h26s7.42-.63 7.42-8.1c.03-3.9-2.67-7.2-6.54-7.85zm-.96 14.4h-25.92c-3.46.05-6.3-2.53-6.58-5.96v-.52c-.16-3.05 1.92-5.7 4.9-6.32.4-.1.64-.47.6-.88-.05-.4-.05-.74 0-1.15.08-3.8 2.12-6.95 5.53-8.6 1.25-.57 2.4-.82 3.83-.85 2.62.1 4.87 1.05 6.7 2.94 1.25 1.3 2.04 2.6 2.62 4.3.04.15.12.3.25.37.37.27.87.2 1.12-.16.83-1.18 2.25-1.68 3.62-1.3 1.8.72 2.87 2.4 2.83 4.32-.08.4.2.8.63.9 3.57.35 6.2 3.53 5.82 7.1-.3 3.13-2.7 5.52-5.82 5.85z" stroke="#fff" stroke-opacity="0" fill="#fff"/><use xlink:href="#d" transform="matrix(1,0,0,1,293.88906677170917,747.864662349659) translate(0 17.77777777777778)"/><path d="M302.9 1033.06a6 6 0 0 1 6-6h268a6 6 0 0 1 6 6v188a6 6 0 0 1-6 6h-268a6 6 0 0 1-6-6z" fill="#147eba" fill-opacity=".13"/><path d="M302.9 1027.06h56v56h-56v-56z" stroke="#fff" stroke-opacity="0" fill="#147eba"/><path d="M346.27 1049.23c-.15-.16-.34-.25-.56-.25h-5.14v-5.57c-.03-2.53-.97-4.7-2.84-6.4-1.9-1.83-4.15-2.74-6.77-2.74-2.65 0-4.9.83-6.8 2.62-1.9 1.7-2.87 3.87-2.9 6.4v5.66h-5.15c-.25 0-.44.1-.6.25-.15.16-.2.33-.2.58v25.3c0 .4.33.78.8.78h29.58c.47 0 .8-.38.8-.8v-25.28c0-.2-.05-.38-.2-.55zm-23.46-5.9c.04-2.13.82-3.87 2.38-5.3 1.62-1.48 3.52-2.2 5.74-2.2s4.12.76 5.7 2.26c1.54 1.4 2.32 3.2 2.32 5.3v5.58h-16.16zm22.1 30.95h-28.02v-23.7h28.02z" stroke="#fff" stroke-opacity="0" fill="#fff"/><path d="M330.1 1064.37v6.24h1.6v-6.22c2.12-.4 3.6-2.2 3.62-4.35 0-2.43-1.97-4.4-4.42-4.43-2.2-.03-4.05 1.5-4.42 3.68-.4 2.4 1.2 4.68 3.6 5.1zm.8-7.16c.8 0 1.45.28 2 .83.55.56.83 1.22.82 2 .02 1.55-1.2 2.8-2.75 2.82h-.07c-1.55.12-2.9-1.05-3.03-2.6-.12-1.57 1.05-2.94 2.6-3.04h.43z" stroke="#fff" stroke-opacity="0" fill="#fff"/><use xlink:href="#e" transform="matrix(1,0,0,1,373.88906677170917,1047.0583421426938) translate(0 17.77777777777778)"/><use xlink:href="#f" transform="matrix(1,0,0,1,373.88906677170917,1047.0583421426938) translate(99.38271604938272 17.77777777777778)"/><path d="M442.9 687.87c22.07 0 40 17.9 40 40 0 22.08-17.93 40-40 40-22.1 0-40-17.92-40-40 0-22.1 17.9-40 40-40zm0 76.3c20.07 0 36.3-16.22 36.3-36.3 0-20.1-16.23-36.33-36.3-36.33-20.1 0-36.33 16.25-36.33 36.33s16.24 36.3 36.32 36.3zm.4-59.5c7.5 0 14.8 2.24 19.83 6.32.4.3.64.87.64 1.35v37.75c0 1.04-.8 1.85-1.76 1.85h-6.4c-1.03 0-1.83-.8-1.83-1.85v-32.8c-3.12-1.43-6.24-2.63-10.48-2.63-4.5 0-7.85 1.28-11.37 2.96v32.48c0 1.04-.8 1.85-1.84 1.85h-6.33c-.96 0-1.76-.8-1.76-1.85v-37.03c0-.5.17-.97.57-1.37 5.12-4.48 12.72-7.04 20.72-7.04zm16.87 43.68V713.3c-4.4-3.2-10.48-5.03-16.88-5.03-6.8 0-13.2 2.08-17.7 5.68v34.4h2.65V716.5c0-.63.4-1.27 1.04-1.6 4.15-2.07 8.3-3.9 14-3.9 5.43 0 9.2 1.75 12.87 3.35l.16.07c.64.33 1.12.97 1.12 1.7v32.23z" stroke="#000" stroke-opacity="0" fill="#4d27aa"/><use xlink:href="#g" transform="matrix(1,0,0,1,372.88906677170917,776.864662349659) translate(1.5499999999999972 14.4)"/><use xlink:href="#h" transform="matrix(1,0,0,1,372.88906677170917,776.864662349659) translate(67.5 14.4)"/><path d="M302.9 813.87a6 6 0 0 1 6-6h268a6 6 0 0 1 6 6v168a6 6 0 0 1-6 6h-268a6 6 0 0 1-6-6z" fill="#248814" fill-opacity=".13"/><path d="M302.9 807.87h56v56h-56v-56z" stroke="#fff" stroke-opacity="0" fill="#248814"/><path d="M346.27 830.04c-.15-.17-.34-.25-.56-.25h-5.14v-5.58c-.03-2.54-.97-4.7-2.84-6.4-1.9-1.84-4.15-2.76-6.77-2.76-2.65 0-4.9.84-6.8 2.63v-.02c-1.9 1.7-2.87 3.87-2.9 6.4v5.67h-5.15c-.25 0-.44.08-.6.25-.15.16-.2.33-.2.58v25.3c0 .4.33.78.8.78h29.58c.47 0 .8-.37.8-.8V830.6c0-.2-.05-.37-.2-.54zm-23.46-5.9c.04-2.13.82-3.88 2.38-5.3 1.62-1.5 3.52-2.2 5.74-2.2s4.12.75 5.7 2.25c1.54 1.4 2.32 3.2 2.32 5.32v5.57h-16.16zm22.1 30.94h-28.02v-23.7h28.02z" stroke="#fff" stroke-opacity="0" fill="#fff"/><path d="M330.1 845.17v6.25h1.6v-6.23c2.12-.4 3.6-2.2 3.62-4.36 0-2.44-1.97-4.42-4.42-4.43-2.2-.02-4.05 1.5-4.42 3.7-.4 2.4 1.2 4.67 3.6 5.07zm.8-7.16c.8 0 1.45.28 2 .84.55.55.83 1.2.82 2 .02 1.54-1.2 2.8-2.75 2.82h-.07c-1.55.12-2.9-1.05-3.03-2.6-.12-1.57 1.05-2.94 2.6-3.05h.43z" stroke="#fff" stroke-opacity="0" fill="#fff"/><use xlink:href="#i" transform="matrix(1,0,0,1,373.88906677170917,827.864662349659) translate(0 17.77777777777778)"/><use xlink:href="#f" transform="matrix(1,0,0,1,373.88906677170917,827.864662349659) translate(66.5432098765432 17.77777777777778)"/><path d="M442.9 867.87c22.07 0 40 17.9 40 40 0 22.08-17.93 40-40 40-22.1 0-40-17.92-40-40 0-22.1 17.9-40 40-40zm0 76.4c20.07 0 36.4-16.32 36.4-36.4 0-20.1-16.33-36.4-36.4-36.4-20.1 0-36.4 16.3-36.4 36.4 0 20.08 16.3 36.4 36.4 36.4zm31.5-36.1c.73.74.73 1.86 0 2.58l-8 7.9c-.3.42-.8.58-1.27.58-.24 0-.4 0-.64-.16-.73-.25-1.13-.9-1.13-1.7v-6.07h-13.92v17.3c0 .94-.8 1.75-1.76 1.75h-14v-3.6h12.15V911.3h-12.48v-3.67h12.48v-15.45H433.7v-3.6h14c.95 0 1.75.8 1.75 1.76v17.28h13.92v-6.15c0-.73.4-1.37 1.12-1.7.63-.23 1.43-.06 1.9.4zm-51.03-6.46l7.92 6.32c.4.33.7.88.7 1.45 0 .55-.3 1.03-.7 1.43l-7.93 6.33c-.32.24-.72.4-1.2.4-.24 0-.48-.1-.72-.16-.64-.33-1.04-.97-1.04-1.7v-12.7c0-.65.4-1.3 1.05-1.6.56-.33 1.36-.25 1.92.24zm0 17.44l7.92 6.4c.4.33.7.88.7 1.45 0 .54-.3 1.02-.7 1.35l-7.93 6.4c-.32.24-.72.4-1.2.4-.24 0-.48-.08-.72-.16-.64-.34-1.04-.98-1.04-1.7v-12.7c0-.74.4-1.38 1.05-1.62.56-.32 1.36-.24 1.92.16zm0-36.55l7.92 6.38c.4.32.7.8.7 1.37 0 .55-.3 1.12-.7 1.43l-7.93 6.4c-.32.25-.72.4-1.2.4-.24 0-.48-.08-.72-.24-.64-.32-1.04-.88-1.04-1.6v-12.72c0-.72.4-1.36 1.05-1.67.56-.33 1.36-.25 1.92.24zm43.6 30.38l3.6-3.5-3.6-3.62zm-42.96-.96l3.3-2.55-3.3-2.57zm0-19.03l3.3-2.65-3.3-2.57zm0 36.54l3.3-2.55-3.3-2.65z" stroke="#000" stroke-opacity="0" fill="#4d27aa"/><use xlink:href="#j" transform="matrix(1,0,0,1,372.88906677170917,956.864662349659) translate(14.924999999999997 14.4)"/><use xlink:href="#h" transform="matrix(1,0,0,1,372.88906677170917,956.864662349659) translate(54.125 14.4)"/><a xlink:href="placeholder://{{cc2}}" target="_blank"><path d="M426.1 1127.87h34.83v26.26H426.1z" fill="none"/><use xlink:href="#k" transform="matrix(1,0,0,1,426.08906677170927,1127.8646623496588) translate(1.752160493827164 17.877777777777776)"/><path class="lucid-link lucid-hotspot lucid-overlay-hotspot" d="M426.1 1127.87h34.83v26.26H426.1z" fill="none"/></a><path d="M631.9 865.8v-9.46l-2.53 1.2v-1.2l2.68-1.5h1.46v11.02zM638.16 865.8l3.6-9.7h-4.88v-1.33h6.5v1.2l-3.55 9.82zM645.6 855.6c.5-.35.93-.6 1.5-.78.5-.15.94-.2 1.46-.17.78-.06 1.48.2 2.02.77.54.62.8 1.34.74 2.16 0 .54-.1 1-.3 1.5-.34.73-.67 1.3-1.14 1.94-.54.76-1.46 1.95-2.77 3.53h4.62v1.32h-6.36v-1.2c1.14-1.4 2-2.52 2.62-3.38.52-.7.9-1.35 1.3-2.14.26-.5.38-1 .38-1.58 0-1.1-.46-1.7-1.36-1.7-1 .1-1.85.42-2.67 1.02zM654.5 865.94c-.28.02-.53-.08-.73-.27-.2-.2-.3-.46-.3-.75 0-.54.4-1 .96-1 .02-.02.04-.02.07 0 .28-.03.53.07.73.27.2.2.3.44.3.72 0 .3-.1.54-.3.75-.2.2-.45.3-.73.27zM660.45 865.8v-9.46l-2.53 1.2v-1.2l2.67-1.5h1.45v11.02zM669.54 855.8c-.74-.02-1.4.33-1.78.97-.5.96-.7 1.88-.7 2.96.72-.43 1.42-.63 2.25-.63.85-.04 1.58.3 2.1.94.57.7.83 1.46.78 2.36.05 1-.24 1.86-.88 2.62-.64.7-1.45 1-2.4.97-1.06.08-2.03-.4-2.6-1.32-.7-1.3-.96-2.57-.86-4.05-.1-1.64.23-3.06 1.02-4.5.63-1 1.68-1.54 2.88-1.5.42.02.77.07 1.18.17.37.08.67.2 1.02.38v1.17c-.33-.15-.62-.25-.97-.33-.36-.1-.66-.16-1.03-.2zm-.67 4.57c-.67 0-1.23.14-1.8.45v.1c-.07 1.05.06 1.93.43 2.9.25.58.8.93 1.43.92 1.07 0 1.6-.75 1.6-2.24.05-.6-.1-1.1-.42-1.58-.3-.4-.74-.6-1.23-.55zM674.8 865.94c-.28.02-.53-.08-.73-.27-.2-.2-.3-.46-.3-.75 0-.56.47-1 1.03-1 .57 0 1.02.44 1.02 1 .02.3-.08.54-.28.75-.2.2-.45.3-.74.27zM680.85 866c-1.12.05-2.1-.5-2.64-1.47-.7-1.37-1-2.7-.9-4.26-.1-1.54.2-2.87.9-4.25.58-.94 1.55-1.44 2.65-1.37 1.1-.04 2.05.5 2.58 1.46.72 1.38 1 2.72.9 4.26.1 1.55-.18 2.88-.9 4.26-.55.93-1.5 1.43-2.58 1.38zm0-1.3c.66 0 1.2-.42 1.4-1.05.37-1.15.5-2.18.44-3.4.06-1.2-.08-2.24-.46-3.38-.14-.5-.5-.84-1-1-.76-.22-1.58.23-1.8 1-.38 1.15-.5 2.18-.45 3.4-.07 1.2.06 2.23.44 3.38.18.64.74 1.05 1.4 1.05zM686.87 865.94c-.28.02-.53-.08-.73-.27-.2-.2-.3-.46-.3-.75 0-.56.47-1 1.03-1 .57 0 1.02.44 1.02 1 0 .3-.1.54-.3.75-.2.2-.45.3-.73.27zM692.9 866c-1.1.04-2.05-.5-2.6-1.47-.7-1.37-1-2.7-.9-4.26-.1-1.54.2-2.87.9-4.25.58-.92 1.53-1.42 2.6-1.38 1.12-.03 2.07.5 2.6 1.47.7 1.38 1 2.72.9 4.26.1 1.55-.2 2.88-.9 4.26-.55.93-1.5 1.43-2.6 1.38zm0-1.3c.67 0 1.23-.42 1.4-1.05.4-1.15.53-2.18.46-3.4.07-1.2-.07-2.24-.45-3.38-.14-.5-.5-.84-.98-1-.78-.22-1.6.23-1.82 1-.37 1.14-.5 2.18-.44 3.4-.07 1.2.07 2.23.44 3.38.2.63.75 1.05 1.4 1.05zM631.9 891.83v-9.4l-2.53 1.22v-1.3l2.68-1.52h1.46v11zM638.16 891.83l3.6-9.68h-4.88v-1.32h6.5V882l-3.55 9.83zM645.6 881.64c.5-.34.94-.57 1.5-.78.5-.17.93-.24 1.46-.23.78-.06 1.47.2 2.02.76.53.6.77 1.28.74 2.07 0 .55-.1 1-.3 1.5-.32.73-.66 1.3-1.14 1.95-.54.75-1.46 1.95-2.77 3.54h4.62v1.3h-6.36v-1.18c1.14-1.4 2-2.53 2.62-3.4.52-.66.9-1.27 1.3-2 .26-.5.38-1 .38-1.57 0-1.1-.46-1.7-1.36-1.7-1 .1-1.85.42-2.67 1.03zM654.5 891.95c-.55.02-1-.4-1.02-.95v-.07c0-.28.08-.53.3-.74.2-.2.44-.3.72-.28.28-.02.53.07.73.27.2.2.3.45.3.73 0 .3-.1.53-.3.73-.2.2-.45.3-.73.3zM660.45 891.83v-9.4l-2.53 1.22v-1.3l2.67-1.52h1.45v11zM669.54 881.88c-.74-.05-1.4.3-1.78.93-.5 1-.7 1.93-.68 3.03.7-.44 1.4-.65 2.23-.66.82-.04 1.54.26 2.07.88.58.7.83 1.47.78 2.37.05 1-.24 1.86-.88 2.62-.64.7-1.45 1.02-2.4.98-1.06.08-2-.4-2.58-1.3-.7-1.3-.96-2.56-.86-4.03-.1-1.65.22-3.08 1.03-4.52.6-1.03 1.65-1.6 2.85-1.56.42 0 .77.04 1.18.14.37.1.68.2 1.02.38v1.16c-.33-.15-.62-.24-.97-.3-.35-.1-.65-.12-1-.12zm-.68 4.55c-.66 0-1.2.15-1.8.43v.14c-.05 1.04.08 1.9.44 2.88.25.6.8.94 1.43.92 1.07 0 1.6-.75 1.6-2.25.04-.6-.1-1.1-.42-1.6-.3-.36-.74-.56-1.24-.52zM674.8 891.95c-.54.02-1-.4-1.02-.95v-.07c0-.28.1-.53.3-.74.42-.38 1.03-.38 1.46 0 .2.2.3.44.3.73 0 .55-.42 1-.97 1.02h-.07zM680.76 891.83v-9.4l-2.55 1.22v-1.3l2.68-1.52h1.46v11zM686.87 891.95c-.54.02-1-.4-1.02-.95v-.07c0-.28.1-.53.3-.74.42-.38 1.03-.38 1.45 0 .2.2.3.44.3.73 0 .55-.4 1-.96 1.02h-.07zM692.9 892.05c-1.1.04-2.05-.5-2.6-1.47-.7-1.38-1-2.7-.9-4.25-.08-1.56.2-2.88.9-4.27.55-.95 1.52-1.48 2.6-1.44 1.1-.04 2.07.5 2.6 1.44.7 1.4 1 2.7.9 4.27.1 1.54-.18 2.88-.9 4.26-.53.95-1.48 1.5-2.6 1.45zm0-1.3c.67 0 1.22-.4 1.4-1.04.38-1.13.53-2.17.46-3.37.07-1.22-.08-2.25-.45-3.4-.13-.5-.5-.84-.98-.98-.78-.23-1.6.2-1.82.98-.37 1.16-.5 2.2-.44 3.4-.06 1.2.08 2.23.44 3.38.2.65.75 1.06 1.4 1.06zM631.9 919.46v-9.4l-2.53 1.18v-1.3l2.68-1.5h1.46v11zM638.16 919.46l3.6-9.7h-4.88v-1.33h6.5v1.2l-3.55 9.83zM645.6 909.27c.5-.35.93-.6 1.5-.8.5-.17.93-.25 1.46-.24.78-.05 1.47.2 2.02.76.54.62.8 1.32.74 2.14 0 .56-.1 1.03-.3 1.53-.33.72-.67 1.3-1.14 1.92-.54.77-1.46 1.93-2.77 3.53h4.62v1.33h-6.36v-1.2c1.14-1.42 2-2.53 2.62-3.4.52-.66.9-1.28 1.3-2.03.25-.52.37-1 .38-1.6 0-1.1-.46-1.68-1.36-1.68-1 .1-1.85.42-2.67 1.02zM654.5 919.6c-.28.02-.53-.07-.73-.26-.2-.2-.3-.46-.3-.75 0-.55.4-1 .96-1.03h.07c.28 0 .53.1.73.3.2.2.3.44.3.72 0 .28-.1.53-.3.74-.2.2-.45.3-.73.27zM660.45 919.46v-9.4l-2.53 1.18v-1.3l2.67-1.5h1.45v11zM669.54 909.5c-.75-.05-1.4.3-1.78.93-.5 1-.72 1.93-.68 3.03.7-.44 1.4-.65 2.23-.66.82-.02 1.53.28 2.07.9.57.68.82 1.47.78 2.36.04 1-.25 1.87-.88 2.63-.64.67-1.46 1-2.4.95-1.06.08-2-.4-2.58-1.3-.7-1.3-.96-2.57-.86-4.05-.1-1.65.22-3.06 1.03-4.5.6-1.05 1.65-1.6 2.85-1.57.42 0 .77.04 1.18.13.37.1.68.22 1.02.4v1.15c-.34-.13-.63-.22-.97-.3-.35-.08-.65-.1-1-.1zm-.68 4.5c-.66 0-1.2.14-1.8.44v.14c-.06 1.02.08 1.9.44 2.88.25.57.8.92 1.43.9 1.08 0 1.6-.74 1.6-2.23.05-.58-.1-1.1-.42-1.58-.3-.4-.74-.6-1.24-.56zM674.8 919.6c-.28.02-.52-.07-.73-.26-.2-.2-.3-.46-.3-.75 0-.57.47-1.03 1.03-1.03.57 0 1.03.46 1.03 1.02 0 .28-.1.53-.3.74-.2.2-.44.28-.73.27zM678 909.27c.46-.35.9-.6 1.47-.8.5-.17.93-.25 1.46-.24.8-.05 1.47.2 2.03.76.53.62.78 1.32.73 2.14-.02.56-.1 1.03-.32 1.53-.3.72-.65 1.3-1.12 1.92-.54.77-1.47 1.93-2.78 3.53h4.62v1.33h-6.37v-1.2c1.14-1.42 2-2.53 2.62-3.4.5-.66.88-1.28 1.26-2.03.28-.52.4-1 .4-1.6 0-1.1-.46-1.68-1.36-1.68-1 .1-1.85.42-2.67 1.02zM686.87 919.6c-.28.02-.53-.07-.73-.26-.2-.2-.3-.46-.3-.75 0-.57.47-1.03 1.03-1.03.57 0 1.02.46 1.02 1.02 0 .28-.1.53-.3.74-.2.2-.45.28-.73.27zM692.9 919.66c-1.1.04-2.05-.5-2.6-1.45-.7-1.36-.97-2.68-.9-4.2-.1-1.55.2-2.9.9-4.26.55-.96 1.5-1.5 2.6-1.46 1.12-.03 2.07.5 2.6 1.46.7 1.37 1 2.7.9 4.25.1 1.54-.2 2.87-.9 4.25-.55.95-1.5 1.46-2.6 1.4zm0-1.28c.67-.02 1.23-.43 1.4-1.06.4-1.15.53-2.2.46-3.4.07-1.2-.07-2.24-.45-3.4-.14-.48-.5-.83-.98-.97-.78-.22-1.6.2-1.82.98-.37 1.15-.5 2.2-.44 3.4-.07 1.2.08 2.24.44 3.4.2.62.75 1.05 1.4 1.05z" stroke="#fff" stroke-opacity="0" fill="#693cc5"/><path d="M701.2 871.88h-76.63c-.88 0-1.68-.77-1.68-1.7v-20.6c0-.95.8-1.72 1.67-1.72h76.64c.9 0 1.7.77 1.7 1.7v20.6c0 .95-.8 1.72-1.7 1.72zm-74.87-3.4h73.12v-17.23h-73.12zM701.2 898.9h-76.63c-.88 0-1.68-.78-1.68-1.72v-20.63c0-.94.8-1.7 1.67-1.7h76.64c.9 0 1.7.76 1.7 1.7v20.63c0 .94-.8 1.7-1.7 1.7zm-74.87-3.4h73.12v-17.27h-73.12zM701.2 925.87h-76.63c-.88 0-1.68-.77-1.68-1.7v-20.6c0-.95.8-1.72 1.67-1.72h76.64c.9 0 1.7.77 1.7 1.7v20.6c0 .95-.8 1.72-1.7 1.72zm-74.87-3.4h73.12v-17.23h-73.12z" stroke="#fff" stroke-opacity="0" fill="#693cc5"/><path d="M624.7 850.07h76.4v73.8h-76.4v-73.8z" stroke="#fff" stroke-opacity="0" stroke-width=".4" fill="#fff" fill-opacity="0"/><use xlink:href="#l" transform="matrix(1,0,0,1,592.8890667717093,934.864662349659) translate(22.530864197530875 17.77777777777778)"/><use xlink:href="#m" transform="matrix(1,0,0,1,592.8890667717093,934.864662349659) translate(98.9506172839506 17.77777777777778)"/><use xlink:href="#n" transform="matrix(1,0,0,1,592.8890667717093,934.864662349659) translate(47.808641975308646 44.44444444444444)"/><path d="M631.9 1124.98v-9.44l-2.53 1.2v-1.2l2.68-1.5h1.46v11zM638.16 1124.98l3.6-9.7h-4.88v-1.32h6.5v1.2l-3.55 9.82zM645.6 1114.8c.5-.36.93-.6 1.5-.8.5-.13.94-.2 1.46-.16.78-.05 1.48.22 2.02.78.54.62.8 1.34.74 2.16 0 .54-.1 1-.3 1.5-.34.72-.67 1.3-1.14 1.93-.54.78-1.46 1.97-2.77 3.54h4.62v1.33h-6.36v-1.2c1.14-1.4 2-2.52 2.62-3.4.52-.68.9-1.32 1.3-2.12.26-.5.38-1 .38-1.57 0-1.1-.46-1.7-1.36-1.7-1 .1-1.85.4-2.67 1zM654.5 1125.13c-.28.02-.53-.07-.73-.27-.2-.2-.3-.45-.3-.74 0-.55.4-1 .96-1.02h.07c.28 0 .53.08.73.3.2.2.3.43.3.72 0 .3-.1.54-.3.74-.2.2-.45.3-.73.27zM660.45 1124.98v-9.44l-2.53 1.2v-1.2l2.67-1.5h1.45v11zM669.54 1115c-.74-.03-1.4.32-1.78.96-.5.96-.7 1.88-.7 2.96.72-.43 1.42-.63 2.25-.63.85-.05 1.58.28 2.1.93.57.7.83 1.47.78 2.36.05.98-.24 1.86-.88 2.62-.64.68-1.45 1-2.4.96-1.06.1-2.03-.4-2.6-1.3-.7-1.3-.96-2.58-.86-4.06-.1-1.63.23-3.05 1.02-4.48.63-1.02 1.68-1.56 2.88-1.5.42 0 .77.05 1.18.15.37.07.67.2 1.02.37v1.17c-.33-.15-.62-.25-.97-.33-.36-.1-.66-.15-1.03-.2zm-.67 4.56c-.67 0-1.23.15-1.8.46v.1c-.07 1.04.06 1.93.43 2.9.25.57.8.92 1.43.9 1.07 0 1.6-.74 1.6-2.22.05-.6-.1-1.1-.42-1.58-.3-.4-.74-.6-1.23-.56zM674.8 1125.13c-.28.02-.53-.07-.73-.27-.2-.2-.3-.45-.3-.74 0-.56.47-1.02 1.03-1.02.57 0 1.02.46 1.02 1.02.02.3-.08.54-.28.74-.2.2-.45.3-.74.27zM680.85 1125.2c-1.12.05-2.1-.5-2.64-1.48-.7-1.37-1-2.7-.9-4.25-.1-1.55.2-2.88.9-4.26.58-.92 1.55-1.42 2.65-1.35 1.1-.05 2.05.5 2.58 1.45.72 1.37 1 2.7.9 4.26.1 1.54-.18 2.87-.9 4.26-.55.93-1.5 1.43-2.58 1.37zm0-1.3c.66 0 1.2-.42 1.4-1.06.37-1.15.5-2.18.44-3.38.06-1.22-.08-2.25-.46-3.4-.14-.5-.5-.84-1-1-.76-.2-1.58.23-1.8 1-.38 1.16-.5 2.18-.45 3.4-.07 1.2.06 2.23.44 3.38.18.65.74 1.06 1.4 1.06zM686.87 1125.13c-.28.02-.53-.07-.73-.27-.2-.2-.3-.45-.3-.74 0-.56.47-1.02 1.03-1.02.57 0 1.02.46 1.02 1.02 0 .3-.1.54-.3.74-.2.2-.45.3-.73.27zM692.9 1125.2c-1.1.04-2.05-.5-2.6-1.47-.7-1.38-1-2.72-.9-4.26-.1-1.55.2-2.87.9-4.26.58-.9 1.53-1.4 2.6-1.36 1.12-.04 2.07.5 2.6 1.46.7 1.38 1 2.72.9 4.26.1 1.54-.2 2.87-.9 4.26-.55.93-1.5 1.43-2.6 1.37zm0-1.3c.67 0 1.23-.42 1.4-1.06.4-1.15.53-2.18.46-3.38.07-1.22-.07-2.25-.45-3.4-.14-.5-.5-.84-.98-1-.78-.2-1.6.23-1.82 1-.37 1.15-.5 2.18-.44 3.4-.07 1.2.07 2.23.44 3.38.2.64.75 1.06 1.4 1.06zM631.9 1151.03v-9.4l-2.53 1.2v-1.3l2.68-1.5h1.46v11zM638.16 1151.03l3.6-9.7h-4.88v-1.3h6.5v1.16l-3.55 9.83zM645.6 1140.84c.5-.35.94-.58 1.5-.78.5-.18.93-.25 1.46-.24.78-.05 1.47.2 2.02.76.53.6.77 1.3.74 2.1 0 .53-.1 1-.3 1.5-.32.7-.66 1.3-1.14 1.93-.54.77-1.46 1.96-2.77 3.56h4.62v1.3h-6.36v-1.18c1.14-1.42 2-2.53 2.62-3.4.52-.67.9-1.27 1.3-2.02.26-.5.38-1 .38-1.56 0-1.1-.46-1.7-1.36-1.7-1 .1-1.85.42-2.67 1.02zM654.5 1151.14c-.55.02-1-.4-1.02-.94v-.07c0-.3.08-.54.3-.75.2-.2.44-.3.72-.27.28 0 .53.08.73.28.2.2.3.46.3.75 0 .28-.1.53-.3.73-.2.2-.45.3-.73.3zM660.45 1151.03v-9.4l-2.53 1.2v-1.3l2.67-1.5h1.45v11zM669.54 1141.07c-.74-.04-1.4.3-1.78.94-.5 1-.7 1.92-.68 3.03.7-.45 1.4-.65 2.23-.66.82-.05 1.54.26 2.07.88.58.7.83 1.47.78 2.37.05 1-.24 1.86-.88 2.6-.64.7-1.45 1.04-2.4 1-1.06.07-2-.4-2.58-1.3-.7-1.3-.96-2.57-.86-4.04-.1-1.64.22-3.07 1.03-4.5.6-1.04 1.65-1.6 2.85-1.56.42 0 .77.03 1.18.13.37.1.68.2 1.02.38v1.16c-.33-.16-.62-.25-.97-.3-.35-.1-.65-.13-1-.13zm-.68 4.55c-.66 0-1.2.15-1.8.44v.13c-.05 1.03.08 1.9.44 2.88.25.58.8.93 1.43.9 1.07 0 1.6-.73 1.6-2.24.04-.6-.1-1.1-.42-1.58-.3-.38-.74-.57-1.24-.54zM674.8 1151.15c-.54 0-1-.4-1.02-.95v-.07c0-.3.1-.54.3-.75.42-.36 1.03-.36 1.46 0 .2.2.3.46.3.75 0 .54-.42 1-.97 1.02h-.07zM680.76 1151.03v-9.4l-2.55 1.2v-1.3l2.68-1.5h1.46v11zM686.87 1151.15c-.54 0-1-.4-1.02-.95v-.07c0-.3.1-.54.3-.75.42-.36 1.03-.36 1.45 0 .2.2.3.46.3.75 0 .54-.4 1-.96 1.02h-.07zM692.9 1151.25c-1.1.03-2.05-.52-2.6-1.48-.7-1.38-1-2.7-.9-4.25-.08-1.55.2-2.88.9-4.26.55-.95 1.52-1.5 2.6-1.44 1.1-.05 2.07.5 2.6 1.44.7 1.38 1 2.7.9 4.26.1 1.54-.18 2.88-.9 4.27-.53.95-1.48 1.48-2.6 1.45zm0-1.3c.67 0 1.22-.42 1.4-1.05.38-1.14.53-2.18.46-3.38.07-1.2-.08-2.25-.45-3.4-.13-.5-.5-.84-.98-.98-.78-.23-1.6.2-1.82.98-.37 1.16-.5 2.2-.44 3.4-.06 1.2.08 2.23.44 3.38.2.64.75 1.06 1.4 1.06zM631.9 1178.65v-9.4l-2.53 1.2v-1.3l2.68-1.52h1.46v11.02zM638.16 1178.65l3.6-9.7h-4.88v-1.32h6.5v1.2l-3.55 9.82zM645.6 1168.46c.5-.35.93-.58 1.5-.78.5-.18.93-.26 1.46-.25.78-.06 1.47.2 2.02.75.54.63.8 1.34.74 2.16 0 .55-.1 1.02-.3 1.53-.33.7-.67 1.3-1.14 1.92-.54.76-1.46 1.93-2.77 3.52h4.62v1.33h-6.36v-1.2c1.14-1.42 2-2.53 2.62-3.38.52-.68.9-1.3 1.3-2.05.25-.5.37-1 .38-1.58 0-1.1-.46-1.7-1.36-1.7-1 .1-1.85.42-2.67 1.03zM654.5 1178.8c-.28.02-.53-.07-.73-.27-.2-.2-.3-.46-.3-.74 0-.56.4-1 .96-1.03h.07c.28-.02.53.08.73.3.2.2.3.43.3.72 0 .27-.1.52-.3.73-.2.2-.45.3-.73.27zM660.45 1178.65v-9.4l-2.53 1.2v-1.3l2.67-1.52h1.45v11.02zM669.54 1168.68c-.75-.04-1.4.3-1.78.95-.5.98-.72 1.92-.68 3.02.7-.44 1.4-.64 2.23-.65.82-.03 1.53.27 2.07.9.57.67.82 1.46.78 2.36.04 1-.25 1.86-.88 2.63-.64.66-1.46 1-2.4.95-1.06.08-2-.4-2.58-1.3-.7-1.3-.96-2.58-.86-4.06-.1-1.65.22-3.07 1.03-4.5.6-1.05 1.65-1.6 2.85-1.58.42 0 .77.05 1.18.14.37.1.68.22 1.02.4v1.14c-.34-.13-.63-.23-.97-.3-.35-.1-.65-.12-1-.12zm-.68 4.5c-.66.02-1.2.15-1.8.45v.14c-.06 1.03.08 1.9.44 2.88.25.57.8.93 1.43.92 1.08 0 1.6-.76 1.6-2.24.05-.6-.1-1.1-.42-1.58-.3-.4-.74-.6-1.24-.56zM674.8 1178.8c-.28.02-.52-.07-.73-.27-.2-.2-.3-.46-.3-.74 0-.58.47-1.03 1.03-1.03.57 0 1.03.45 1.03 1.02 0 .27-.1.52-.3.73-.2.2-.44.3-.73.27zM678 1168.46c.46-.35.9-.58 1.47-.78.5-.18.93-.26 1.46-.25.8-.06 1.47.2 2.03.75.53.63.78 1.34.73 2.16-.02.55-.1 1.02-.32 1.53-.3.7-.65 1.3-1.12 1.92-.54.76-1.47 1.93-2.78 3.52h4.62v1.33h-6.37v-1.2c1.14-1.42 2-2.53 2.62-3.38.5-.68.88-1.3 1.26-2.05.28-.5.4-1 .4-1.58 0-1.1-.46-1.7-1.36-1.7-1 .1-1.85.42-2.67 1.03zM686.87 1178.8c-.28.02-.53-.07-.73-.27-.2-.2-.3-.46-.3-.74 0-.58.47-1.03 1.03-1.03.57 0 1.02.45 1.02 1.02 0 .27-.1.52-.3.73-.2.2-.45.3-.73.27zM692.9 1178.86c-1.1.03-2.05-.5-2.6-1.46-.7-1.37-.97-2.7-.9-4.2-.1-1.56.2-2.9.9-4.27.55-.96 1.5-1.5 2.6-1.46 1.12-.03 2.07.5 2.6 1.46.7 1.38 1 2.7.9 4.26.1 1.53-.2 2.87-.9 4.24-.55.95-1.5 1.46-2.6 1.4zm0-1.3c.67 0 1.23-.4 1.4-1.05.4-1.14.53-2.17.46-3.38.07-1.2-.07-2.24-.45-3.4-.14-.48-.5-.84-.98-.97-.78-.23-1.6.2-1.82.98-.37 1.15-.5 2.18-.44 3.4-.07 1.2.08 2.23.44 3.38.2.65.75 1.07 1.4 1.07z" stroke="#fff" stroke-opacity="0" fill="#693cc5"/><path d="M701.2 1131.07h-76.63c-.88 0-1.68-.77-1.68-1.7v-20.6c0-.94.8-1.7 1.67-1.7h76.64c.9 0 1.7.76 1.7 1.7v20.6c0 .93-.8 1.7-1.7 1.7zm-74.87-3.4h73.12v-17.23h-73.12zM701.2 1158.08h-76.63c-.88 0-1.68-.77-1.68-1.7v-20.64c0-.93.8-1.7 1.67-1.7h76.64c.9 0 1.7.77 1.7 1.7v20.63c0 .94-.8 1.7-1.7 1.7zm-74.87-3.4h73.12v-17.25h-73.12zM701.2 1185.06h-76.63c-.88 0-1.68-.77-1.68-1.7v-20.6c0-.94.8-1.7 1.67-1.7h76.64c.9 0 1.7.76 1.7 1.7v20.6c0 .93-.8 1.7-1.7 1.7zm-74.87-3.4h73.12v-17.23h-73.12z" stroke="#fff" stroke-opacity="0" fill="#693cc5"/><path d="M624.7 1109.26h76.4v73.8h-76.4v-73.8z" stroke="#fff" stroke-opacity="0" stroke-width=".4" fill="#fff" fill-opacity="0"/><g><use xlink:href="#l" transform="matrix(1,0,0,1,592.8890667717093,1194.0583421426938) translate(22.530864197530875 17.77777777777778)"/><use xlink:href="#m" transform="matrix(1,0,0,1,592.8890667717093,1194.0583421426938) translate(98.9506172839506 17.77777777777778)"/><use xlink:href="#o" transform="matrix(1,0,0,1,592.8890667717093,1194.0583421426938) translate(2.0061728395061778 44.44444444444444)"/><use xlink:href="#p" transform="matrix(1,0,0,1,592.8890667717093,1194.0583421426938) translate(50.40123456790124 44.44444444444444)"/></g><a xlink:href="placeholder://{{wkld1_rdp}}" target="_blank"><path d="M402.9 1104.66h80v80h-80v-80z" stroke="#fff" stroke-opacity="0" stroke-width="2" fill="#d86613"/><path d="M467.43 1147.86h-5.35v-2.12h5.35v-25.63H441.8v5.36h-2.12v-5.35c0-1.15.95-2.1 2.12-2.1h25.63c1.16 0 2.12.95 2.12 2.1v25.64c0 1.16-.96 2.12-2.13 2.12zM443.96 1171.33h-25.63c-1.16 0-2.12-.96-2.12-2.13v-25.62c0-1.17.97-2.12 2.13-2.12h5.35v2.12h-5.35v25.62h25.63v-5.34h2.12v5.34c0 1.17-.96 2.13-2.12 2.13z" stroke="#fff" stroke-opacity="0" stroke-width="2" fill="#fff"/><path d="M459.96 1135.07v-2.15h-3.2c-.08-1.13-1-2.05-2.13-2.12v-3.2h-2.15v3.2h-3.17v-3.2h-2.14v3.2h-3.2v-3.2h-2.13v3.2h-3.2v-3.2h-2.12v3.2h-3.2v-3.2h-2.15v3.2c-1.13.07-2.05 1-2.12 2.12h-3.2v2.15h3.2v3.2h-3.2v2.12h3.2v3.2h-3.2v2.12h3.2v3.2h-3.2v2.15h3.2v3.18h-3.2v2.15h3.2c.07 1.13 1 2.05 2.12 2.12v3.2h2.15v-3.2h3.2v3.2h2.12v-3.2h3.2v3.2h2.13v-3.2h3.2v3.2h2.16v-3.2h3.18v3.2h2.15v-3.2c1.13-.07 2.05-1 2.12-2.12h3.2v-2.15h-3.2v-3.17h3.2v-2.15h-3.2v-3.2h3.2v-2.13h-3.2v-3.2h3.2v-2.13h-3.2v-3.2zm-5.33 21.13c0 .1-.1.2-.2.2h-23.08c-.1 0-.2-.1-.2-.2v-23.08c0-.1.1-.2.2-.2h23.08c.1 0 .2.1.2.2z" stroke="#fff" stroke-opacity="0" stroke-width="2" fill="#fff"/><use xlink:href="#q" transform="matrix(1,0,0,1,372.88906677170917,1193.6583421426938) translate(32.71604938271606 14.222222222222221)"/><path class="lucid-link lucid-hotspot lucid-overlay-hotspot" d="M402.9 1104.66h80v80h-80v-80z" fill="none"/><path class="lucid-link lucid-hotspot lucid-overlay-hotspot" d="M467.43 1147.86h-5.35v-2.12h5.35v-25.63H441.8v5.36h-2.12v-5.35c0-1.15.95-2.1 2.12-2.1h25.63c1.16 0 2.12.95 2.12 2.1v25.64c0 1.16-.96 2.12-2.13 2.12zM443.96 1171.33h-25.63c-1.16 0-2.12-.96-2.12-2.13v-25.62c0-1.17.97-2.12 2.13-2.12h5.35v2.12h-5.35v25.62h25.63v-5.34h2.12v5.34c0 1.17-.96 2.13-2.12 2.13z" fill="none"/><path class="lucid-link lucid-hotspot lucid-overlay-hotspot" d="M459.96 1135.07v-2.15h-3.2c-.08-1.13-1-2.05-2.13-2.12v-3.2h-2.15v3.2h-3.17v-3.2h-2.14v3.2h-3.2v-3.2h-2.13v3.2h-3.2v-3.2h-2.12v3.2h-3.2v-3.2h-2.15v3.2c-1.13.07-2.05 1-2.12 2.12h-3.2v2.15h3.2v3.2h-3.2v2.12h3.2v3.2h-3.2v2.12h3.2v3.2h-3.2v2.15h3.2v3.18h-3.2v2.15h3.2c.07 1.13 1 2.05 2.12 2.12v3.2h2.15v-3.2h3.2v3.2h2.12v-3.2h3.2v3.2h2.13v-3.2h3.2v3.2h2.16v-3.2h3.18v3.2h2.15v-3.2c1.13-.07 2.05-1 2.12-2.12h3.2v-2.15h-3.2v-3.17h3.2v-2.15h-3.2v-3.2h3.2v-2.13h-3.2v-3.2h3.2v-2.13h-3.2v-3.2zm-5.33 21.13c0 .1-.1.2-.2.2h-23.08c-.1 0-.2-.1-.2-.2v-23.08c0-.1.1-.2.2-.2h23.08c.1 0 .2.1.2.2z" fill="none"/></a><path d="M442.9 1027.4v-23.2M442.9 1027.4v.5" stroke="#3a414a" fill="none"/><path d="M442.9 989.45l4.62 14.26h-9.27z" stroke="#3a414a" fill="#3a414a"/><defs><path fill="#232f3e" d="M205 0l-28-72H64L36 0H1l101-248h38L239 0h-34zm-38-99l-47-123c-12 45-31 82-46 123h93" id="r"/><path fill="#232f3e" d="M266 0h-40l-56-210L115 0H75L2-248h35L96-30l15-64 43-154h32l59 218 59-218h35" id="s"/><path fill="#232f3e" d="M185-189c-5-48-123-54-124 2 14 75 158 14 163 119 3 78-121 87-175 55-17-10-28-26-33-46l33-7c5 56 141 63 141-1 0-78-155-14-162-118-5-82 145-84 179-34 5 7 8 16 11 25" id="t"/><g id="a"><use transform="matrix(0.05,0,0,0.05,0,0)" xlink:href="#r"/><use transform="matrix(0.05,0,0,0.05,11.35,0)" xlink:href="#s"/><use transform="matrix(0.05,0,0,0.05,28.299999999999997,0)" xlink:href="#t"/></g><path fill="#232f3e" d="M212-179c-10-28-35-45-73-45-59 0-87 40-87 99 0 60 29 101 89 101 43 0 62-24 78-52l27 14C228-24 195 4 139 4 59 4 22-46 18-125c-6-104 99-153 187-111 19 9 31 26 39 46" id="u"/><path fill="#232f3e" d="M24 0v-261h32V0H24" id="v"/><path fill="#232f3e" d="M100-194c62-1 85 37 85 99 1 63-27 99-86 99S16-35 15-95c0-66 28-99 85-99zM99-20c44 1 53-31 53-75 0-43-8-75-51-75s-53 32-53 75 10 74 51 75" id="w"/><path fill="#232f3e" d="M84 4C-5 8 30-112 23-190h32v120c0 31 7 50 39 49 72-2 45-101 50-169h31l1 190h-30c-1-10 1-25-2-33-11 22-28 36-60 37" id="x"/><path fill="#232f3e" d="M85-194c31 0 48 13 60 33l-1-100h32l1 261h-30c-2-10 0-23-3-31C134-8 116 4 85 4 32 4 16-35 15-94c0-66 23-100 70-100zm9 24c-40 0-46 34-46 75 0 40 6 74 45 74 42 0 51-32 51-76 0-42-9-74-50-73" id="y"/><g id="b"><use transform="matrix(0.05,0,0,0.05,0,0)" xlink:href="#u"/><use transform="matrix(0.05,0,0,0.05,12.950000000000001,0)" xlink:href="#v"/><use transform="matrix(0.05,0,0,0.05,16.900000000000002,0)" xlink:href="#w"/><use transform="matrix(0.05,0,0,0.05,26.900000000000002,0)" xlink:href="#x"/><use transform="matrix(0.05,0,0,0.05,36.900000000000006,0)" xlink:href="#y"/></g><path fill="#147eba" d="M233-177c-1 41-23 64-60 70L243 0h-38l-65-103H63V0H30v-248c88 3 205-21 203 71zM63-129c60-2 137 13 137-47 0-61-80-42-137-45v92" id="z"/><path fill="#147eba" d="M100-194c63 0 86 42 84 106H49c0 40 14 67 53 68 26 1 43-12 49-29l28 8c-11 28-37 45-77 45C44 4 14-33 15-96c1-61 26-98 85-98zm52 81c6-60-76-77-97-28-3 7-6 17-6 28h103" id="A"/><path fill="#147eba" d="M177-190C167-65 218 103 67 71c-23-6-38-20-44-43l32-5c15 47 100 32 89-28v-30C133-14 115 1 83 1 29 1 15-40 15-95c0-56 16-97 71-98 29-1 48 16 59 35 1-10 0-23 2-32h30zM94-22c36 0 50-32 50-73 0-42-14-75-50-75-39 0-46 34-46 75s6 73 46 73" id="B"/><path fill="#147eba" d="M24-231v-30h32v30H24zM24 0v-190h32V0H24" id="C"/><path fill="#147eba" d="M100-194c62-1 85 37 85 99 1 63-27 99-86 99S16-35 15-95c0-66 28-99 85-99zM99-20c44 1 53-31 53-75 0-43-8-75-51-75s-53 32-53 75 10 74 51 75" id="D"/><path fill="#147eba" d="M117-194c89-4 53 116 60 194h-32v-121c0-31-8-49-39-48C34-167 62-67 57 0H25l-1-190h30c1 10-1 24 2 32 11-22 29-35 61-36" id="E"/><path fill="#147eba" d="M27 0v-27h64v-190l-56 39v-29l58-41h29v221h61V0H27" id="F"/><g id="c"><use transform="matrix(0.05,0,0,0.05,0,0)" xlink:href="#z"/><use transform="matrix(0.05,0,0,0.05,12.950000000000001,0)" xlink:href="#A"/><use transform="matrix(0.05,0,0,0.05,22.950000000000003,0)" xlink:href="#B"/><use transform="matrix(0.05,0,0,0.05,32.95,0)" xlink:href="#C"/><use transform="matrix(0.05,0,0,0.05,36.900000000000006,0)" xlink:href="#D"/><use transform="matrix(0.05,0,0,0.05,46.900000000000006,0)" xlink:href="#E"/><use transform="matrix(0.05,0,0,0.05,56.900000000000006,0)" xlink:href="#F"/></g><path fill="#3a414a" d="M137 0h-34L2-248h35l83 218 83-218h36" id="G"/><path fill="#3a414a" d="M30-248c87 1 191-15 191 75 0 78-77 80-158 76V0H30v-248zm33 125c57 0 124 11 124-50 0-59-68-47-124-48v98" id="H"/><path fill="#3a414a" d="M212-179c-10-28-35-45-73-45-59 0-87 40-87 99 0 60 29 101 89 101 43 0 62-24 78-52l27 14C228-24 195 4 139 4 59 4 22-46 18-125c-6-104 99-153 187-111 19 9 31 26 39 46" id="I"/><g id="d"><use transform="matrix(0.06172839506172839,0,0,0.06172839506172839,0,0)" xlink:href="#G"/><use transform="matrix(0.06172839506172839,0,0,0.06172839506172839,14.814814814814813,0)" xlink:href="#H"/><use transform="matrix(0.06172839506172839,0,0,0.06172839506172839,29.629629629629626,0)" xlink:href="#I"/></g><path fill="#3a414a" d="M266 0h-40l-56-210L115 0H75L2-248h35L96-30l15-64 43-154h32l59 218 59-218h35" id="J"/><path fill="#3a414a" d="M100-194c62-1 85 37 85 99 1 63-27 99-86 99S16-35 15-95c0-66 28-99 85-99zM99-20c44 1 53-31 53-75 0-43-8-75-51-75s-53 32-53 75 10 74 51 75" id="K"/><path fill="#3a414a" d="M114-163C36-179 61-72 57 0H25l-1-190h30c1 12-1 29 2 39 6-27 23-49 58-41v29" id="L"/><path fill="#3a414a" d="M143 0L79-87 56-68V0H24v-261h32v163l83-92h37l-77 82L181 0h-38" id="M"/><path fill="#3a414a" d="M24 0v-261h32V0H24" id="N"/><path fill="#3a414a" d="M141-36C126-15 110 5 73 4 37 3 15-17 15-53c-1-64 63-63 125-63 3-35-9-54-41-54-24 1-41 7-42 31l-33-3c5-37 33-52 76-52 45 0 72 20 72 64v82c-1 20 7 32 28 27v20c-31 9-61-2-59-35zM48-53c0 20 12 33 32 33 41-3 63-29 60-74-43 2-92-5-92 41" id="O"/><path fill="#3a414a" d="M85-194c31 0 48 13 60 33l-1-100h32l1 261h-30c-2-10 0-23-3-31C134-8 116 4 85 4 32 4 16-35 15-94c0-66 23-100 70-100zm9 24c-40 0-46 34-46 75 0 40 6 74 45 74 42 0 51-32 51-76 0-42-9-74-50-73" id="P"/><g id="e"><use transform="matrix(0.06172839506172839,0,0,0.06172839506172839,0,0)" xlink:href="#J"/><use transform="matrix(0.06172839506172839,0,0,0.06172839506172839,20.493827160493826,0)" xlink:href="#K"/><use transform="matrix(0.06172839506172839,0,0,0.06172839506172839,32.839506172839506,0)" xlink:href="#L"/><use transform="matrix(0.06172839506172839,0,0,0.06172839506172839,40.18518518518518,0)" xlink:href="#M"/><use transform="matrix(0.06172839506172839,0,0,0.06172839506172839,51.29629629629629,0)" xlink:href="#N"/><use transform="matrix(0.06172839506172839,0,0,0.06172839506172839,56.172839506172835,0)" xlink:href="#K"/><use transform="matrix(0.06172839506172839,0,0,0.06172839506172839,68.51851851851852,0)" xlink:href="#O"/><use transform="matrix(0.06172839506172839,0,0,0.06172839506172839,80.8641975308642,0)" xlink:href="#P"/></g><path fill="#3a414a" d="M185-189c-5-48-123-54-124 2 14 75 158 14 163 119 3 78-121 87-175 55-17-10-28-26-33-46l33-7c5 56 141 63 141-1 0-78-155-14-162-118-5-82 145-84 179-34 5 7 8 16 11 25" id="Q"/><path fill="#3a414a" d="M84 4C-5 8 30-112 23-190h32v120c0 31 7 50 39 49 72-2 45-101 50-169h31l1 190h-30c-1-10 1-25-2-33-11 22-28 36-60 37" id="R"/><path fill="#3a414a" d="M115-194c53 0 69 39 70 98 0 66-23 100-70 100C84 3 66-7 56-30L54 0H23l1-261h32v101c10-23 28-34 59-34zm-8 174c40 0 45-34 45-75 0-40-5-75-45-74-42 0-51 32-51 76 0 43 10 73 51 73" id="S"/><path fill="#3a414a" d="M117-194c89-4 53 116 60 194h-32v-121c0-31-8-49-39-48C34-167 62-67 57 0H25l-1-190h30c1 10-1 24 2 32 11-22 29-35 61-36" id="T"/><path fill="#3a414a" d="M100-194c63 0 86 42 84 106H49c0 40 14 67 53 68 26 1 43-12 49-29l28 8c-11 28-37 45-77 45C44 4 14-33 15-96c1-61 26-98 85-98zm52 81c6-60-76-77-97-28-3 7-6 17-6 28h103" id="U"/><path fill="#3a414a" d="M59-47c-2 24 18 29 38 22v24C64 9 27 4 27-40v-127H5v-23h24l9-43h21v43h35v23H59v120" id="V"/><g id="f"><use transform="matrix(0.06172839506172839,0,0,0.06172839506172839,0,0)" xlink:href="#Q"/><use transform="matrix(0.06172839506172839,0,0,0.06172839506172839,14.814814814814813,0)" xlink:href="#R"/><use transform="matrix(0.06172839506172839,0,0,0.06172839506172839,27.160493827160494,0)" xlink:href="#S"/><use transform="matrix(0.06172839506172839,0,0,0.06172839506172839,39.50617283950617,0)" xlink:href="#T"/><use transform="matrix(0.06172839506172839,0,0,0.06172839506172839,51.85185185185185,0)" xlink:href="#U"/><use transform="matrix(0.06172839506172839,0,0,0.06172839506172839,64.19753086419753,0)" xlink:href="#V"/></g><path d="M33 0v-248h34V0H33" id="W"/><path d="M117-194c89-4 53 116 60 194h-32v-121c0-31-8-49-39-48C34-167 62-67 57 0H25l-1-190h30c1 10-1 24 2 32 11-22 29-35 61-36" id="X"/><path d="M59-47c-2 24 18 29 38 22v24C64 9 27 4 27-40v-127H5v-23h24l9-43h21v43h35v23H59v120" id="Y"/><path d="M100-194c63 0 86 42 84 106H49c0 40 14 67 53 68 26 1 43-12 49-29l28 8c-11 28-37 45-77 45C44 4 14-33 15-96c1-61 26-98 85-98zm52 81c6-60-76-77-97-28-3 7-6 17-6 28h103" id="Z"/><path d="M114-163C36-179 61-72 57 0H25l-1-190h30c1 12-1 29 2 39 6-27 23-49 58-41v29" id="aa"/><g id="g"><use transform="matrix(0.05,0,0,0.05,0,0)" xlink:href="#W"/><use transform="matrix(0.05,0,0,0.05,5,0)" xlink:href="#X"/><use transform="matrix(0.05,0,0,0.05,15,0)" xlink:href="#Y"/><use transform="matrix(0.05,0,0,0.05,20,0)" xlink:href="#Z"/><use transform="matrix(0.05,0,0,0.05,30,0)" xlink:href="#aa"/><use transform="matrix(0.05,0,0,0.05,35.95,0)" xlink:href="#X"/><use transform="matrix(0.05,0,0,0.05,45.95,0)" xlink:href="#Z"/><use transform="matrix(0.05,0,0,0.05,55.95,0)" xlink:href="#Y"/></g><path d="M143 4C61 4 22-44 18-125c-5-107 100-154 193-111 17 8 29 25 37 43l-32 9c-13-25-37-40-76-40-61 0-88 39-88 99 0 61 29 100 91 101 35 0 62-11 79-27v-45h-74v-28h105v86C228-13 192 4 143 4" id="ab"/><path d="M141-36C126-15 110 5 73 4 37 3 15-17 15-53c-1-64 63-63 125-63 3-35-9-54-41-54-24 1-41 7-42 31l-33-3c5-37 33-52 76-52 45 0 72 20 72 64v82c-1 20 7 32 28 27v20c-31 9-61-2-59-35zM48-53c0 20 12 33 32 33 41-3 63-29 60-74-43 2-92-5-92 41" id="ac"/><path d="M206 0h-36l-40-164L89 0H53L-1-190h32L70-26l43-164h34l41 164 42-164h31" id="ad"/><path d="M179-190L93 31C79 59 56 82 12 73V49c39 6 53-20 64-50L1-190h34L92-34l54-156h33" id="ae"/><g id="h"><use transform="matrix(0.05,0,0,0.05,0,0)" xlink:href="#ab"/><use transform="matrix(0.05,0,0,0.05,14,0)" xlink:href="#ac"/><use transform="matrix(0.05,0,0,0.05,24,0)" xlink:href="#Y"/><use transform="matrix(0.05,0,0,0.05,29,0)" xlink:href="#Z"/><use transform="matrix(0.05,0,0,0.05,39,0)" xlink:href="#ad"/><use transform="matrix(0.05,0,0,0.05,51.95,0)" xlink:href="#ac"/><use transform="matrix(0.05,0,0,0.05,61.95,0)" xlink:href="#ae"/></g><path fill="#3a414a" d="M24-231v-30h32v30H24zM24 0v-190h32V0H24" id="af"/><path fill="#3a414a" d="M96-169c-40 0-48 33-48 73s9 75 48 75c24 0 41-14 43-38l32 2c-6 37-31 61-74 61-59 0-76-41-82-99-10-93 101-131 147-64 4 7 5 14 7 22l-32 3c-4-21-16-35-41-35" id="ag"/><g id="i"><use transform="matrix(0.06172839506172839,0,0,0.06172839506172839,0,0)" xlink:href="#H"/><use transform="matrix(0.06172839506172839,0,0,0.06172839506172839,14.814814814814813,0)" xlink:href="#R"/><use transform="matrix(0.06172839506172839,0,0,0.06172839506172839,27.160493827160494,0)" xlink:href="#S"/><use transform="matrix(0.06172839506172839,0,0,0.06172839506172839,39.50617283950617,0)" xlink:href="#N"/><use transform="matrix(0.06172839506172839,0,0,0.06172839506172839,44.382716049382715,0)" xlink:href="#af"/><use transform="matrix(0.06172839506172839,0,0,0.06172839506172839,49.25925925925926,0)" xlink:href="#ag"/></g><path d="M190 0L58-211 59 0H30v-248h39L202-35l-2-213h31V0h-41" id="ah"/><path d="M205 0l-28-72H64L36 0H1l101-248h38L239 0h-34zm-38-99l-47-123c-12 45-31 82-46 123h93" id="ai"/><path d="M127-220V0H93v-220H8v-28h204v28h-85" id="aj"/><g id="j"><use transform="matrix(0.05,0,0,0.05,0,0)" xlink:href="#ah"/><use transform="matrix(0.05,0,0,0.05,12.950000000000001,0)" xlink:href="#ai"/><use transform="matrix(0.05,0,0,0.05,23.6,0)" xlink:href="#aj"/></g><path fill="#fff" d="M67-125c0 53 21 87 73 88 37 1 54-22 65-47l45 17C233-25 199 4 140 4 58 4 20-42 15-125 8-235 124-281 211-232c18 10 29 29 36 50l-46 12c-8-25-30-41-62-41-52 0-71 34-72 86" id="ak"/><g id="k"><use transform="matrix(0.06080246913580246,0,0,0.06080246913580246,0,0)" xlink:href="#ak"/><use transform="matrix(0.06080246913580246,0,0,0.06080246913580246,15.747839506172836,0)" xlink:href="#ak"/></g><path fill="#3a414a" d="M30-248c118-7 216 8 213 122C240-48 200 0 122 0H30v-248zM63-27c89 8 146-16 146-99s-60-101-146-95v194" id="al"/><path fill="#3a414a" d="M101-234c-31-9-42 10-38 44h38v23H63V0H32v-167H5v-23h27c-7-52 17-82 69-68v24" id="am"/><g id="l"><use transform="matrix(0.06172839506172839,0,0,0.06172839506172839,0,0)" xlink:href="#al"/><use transform="matrix(0.06172839506172839,0,0,0.06172839506172839,15.987654320987653,0)" xlink:href="#U"/><use transform="matrix(0.06172839506172839,0,0,0.06172839506172839,28.333333333333332,0)" xlink:href="#am"/><use transform="matrix(0.06172839506172839,0,0,0.06172839506172839,34.50617283950617,0)" xlink:href="#O"/><use transform="matrix(0.06172839506172839,0,0,0.06172839506172839,46.85185185185185,0)" xlink:href="#R"/><use transform="matrix(0.06172839506172839,0,0,0.06172839506172839,59.197530864197525,0)" xlink:href="#N"/><use transform="matrix(0.06172839506172839,0,0,0.06172839506172839,64.07407407407406,0)" xlink:href="#V"/></g><g id="m"><use transform="matrix(0.06172839506172839,0,0,0.06172839506172839,0,0)" xlink:href="#V"/><use transform="matrix(0.06172839506172839,0,0,0.06172839506172839,6.172839506172839,0)" xlink:href="#K"/></g><path fill="#3a414a" d="M33 0v-248h34V0H33" id="an"/><path fill="#3a414a" d="M143 4C61 4 22-44 18-125c-5-107 100-154 193-111 17 8 29 25 37 43l-32 9c-13-25-37-40-76-40-61 0-88 39-88 99 0 61 29 100 91 101 35 0 62-11 79-27v-45h-74v-28h105v86C228-13 192 4 143 4" id="ao"/><g id="n"><use transform="matrix(0.06172839506172839,0,0,0.06172839506172839,0,0)" xlink:href="#an"/><use transform="matrix(0.06172839506172839,0,0,0.06172839506172839,6.172839506172839,0)" xlink:href="#ao"/><use transform="matrix(0.06172839506172839,0,0,0.06172839506172839,23.456790123456788,0)" xlink:href="#J"/></g><path fill="#3a414a" d="M190 0L58-211 59 0H30v-248h39L202-35l-2-213h31V0h-41" id="ap"/><path fill="#3a414a" d="M205 0l-28-72H64L36 0H1l101-248h38L239 0h-34zm-38-99l-47-123c-12 45-31 82-46 123h93" id="aq"/><path fill="#3a414a" d="M127-220V0H93v-220H8v-28h204v28h-85" id="ar"/><g id="o"><use transform="matrix(0.06172839506172839,0,0,0.06172839506172839,0,0)" xlink:href="#ap"/><use transform="matrix(0.06172839506172839,0,0,0.06172839506172839,15.987654320987653,0)" xlink:href="#aq"/><use transform="matrix(0.06172839506172839,0,0,0.06172839506172839,29.1358024691358,0)" xlink:href="#ar"/></g><path fill="#3a414a" d="M206 0h-36l-40-164L89 0H53L-1-190h32L70-26l43-164h34l41 164 42-164h31" id="as"/><path fill="#3a414a" d="M179-190L93 31C79 59 56 82 12 73V49c39 6 53-20 64-50L1-190h34L92-34l54-156h33" id="at"/><g id="p"><use transform="matrix(0.06172839506172839,0,0,0.06172839506172839,0,0)" xlink:href="#ao"/><use transform="matrix(0.06172839506172839,0,0,0.06172839506172839,17.28395061728395,0)" xlink:href="#O"/><use transform="matrix(0.06172839506172839,0,0,0.06172839506172839,29.629629629629626,0)" xlink:href="#V"/><use transform="matrix(0.06172839506172839,0,0,0.06172839506172839,35.80246913580247,0)" xlink:href="#U"/><use transform="matrix(0.06172839506172839,0,0,0.06172839506172839,48.148148148148145,0)" xlink:href="#as"/><use transform="matrix(0.06172839506172839,0,0,0.06172839506172839,64.1358024691358,0)" xlink:href="#O"/><use transform="matrix(0.06172839506172839,0,0,0.06172839506172839,76.48148148148148,0)" xlink:href="#at"/></g><g id="q"><use transform="matrix(0.049382716049382706,0,0,0.049382716049382706,0,0)" xlink:href="#J"/><use transform="matrix(0.049382716049382706,0,0,0.049382716049382706,16.395061728395056,0)" xlink:href="#K"/><use transform="matrix(0.049382716049382706,0,0,0.049382716049382706,26.2716049382716,0)" xlink:href="#L"/><use transform="matrix(0.049382716049382706,0,0,0.049382716049382706,32.14814814814814,0)" xlink:href="#M"/><use transform="matrix(0.049382716049382706,0,0,0.049382716049382706,41.037037037037024,0)" xlink:href="#N"/><use transform="matrix(0.049382716049382706,0,0,0.049382716049382706,44.93827160493826,0)" xlink:href="#K"/><use transform="matrix(0.049382716049382706,0,0,0.049382716049382706,54.814814814814795,0)" xlink:href="#O"/><use transform="matrix(0.049382716049382706,0,0,0.049382716049382706,64.69135802469134,0)" xlink:href="#P"/></g></defs></g></svg>